<svg width="16" height="16" viewBox="0 0 16 16" fill="none" xmlns="http://www.w3.org/2000/svg">
    <g clip-path="url(#clip0_2038_15930)">
        <path fill-rule="evenodd" clip-rule="evenodd"
            d="M4 2H11C12.1046 2 13 2.89543 13 4V4.12602C12.6804 4.04375 12.3453 4 12 4H4C3.27143 4 2.58835 4.19479 2 4.53513V4C2 2.89543 2.89543 2 4 2ZM15 4V5.35418C15.6224 6.05931 16 6.98555 16 8V12C16 14.2091 14.2091 16 12 16H4C1.79086 16 0 14.2091 0 12V8V4C0 1.79086 1.79086 0 4 0H11C13.2091 0 15 1.79086 15 4ZM12 6H4C2.89543 6 2 6.89543 2 8V12C2 13.1046 2.89543 14 4 14H12C13.1046 14 14 13.1046 14 12V8C14 6.89543 13.1046 6 12 6ZM12 11V9H10V11H12Z"
            fill="currentColor" />
    </g>
    <defs>
        <clipPath id="clip0_2038_15930">
            <rect width="16" height="16" fill="white" />
        </clipPath>
    </defs>
</svg>